<svg version="1.1" id="Layer_1" xmlns="http://www.w3.org/2000/svg" xmlns:xlink="http://www.w3.org/1999/xlink" x="0px" y="0px"
	 width="100%" viewBox="0 0 1024 672" enable-background="new 0 0 1024 672" xml:space="preserve">
<path fill="#000000" opacity="1.000000" stroke="none" 
	d="
M182.603287,563.763489 
	C185.587479,556.455811 188.499023,549.543152 192.822189,543.345459 
	C197.420883,536.752625 201.166336,535.310364 209.048447,537.042358 
	C214.001434,538.130615 216.292465,536.553040 216.648010,531.450867 
	C216.900162,527.832458 217.703476,524.550659 220.379669,521.940796 
	C236.949692,505.781616 247.129013,485.557129 256.481659,464.851349 
	C259.494293,458.181702 262.098785,451.306305 264.507690,444.391815 
	C266.551392,438.525665 270.522278,435.131683 276.171906,432.991730 
	C304.605377,422.221832 321.179565,401.857178 324.653107,371.523987 
	C330.831543,317.570160 363.381958,282.010132 409.195099,269.414551 
	C429.596130,263.805634 450.210297,264.810547 470.580750,269.092194 
	C512.651611,277.934967 548.496887,266.701904 579.317688,237.287537 
	C597.868103,219.583679 615.117493,200.481232 635.617432,184.854599 
	C659.570190,166.595901 685.491333,152.834320 715.925232,149.294815 
	C727.234375,147.979553 738.569458,148.112198 749.768494,150.247665 
	C754.944641,151.234650 759.545898,150.670624 764.204651,148.184998 
	C773.611023,143.166336 783.149475,138.392166 792.683533,133.617126 
	C798.201660,130.853424 800.404663,132.161240 800.140381,138.456116 
	C799.778259,147.082367 797.304077,155.229065 792.474304,162.421295 
	C790.398010,165.513138 790.470032,167.820709 793.051392,170.288010 
	C793.771362,170.976151 794.376343,171.783859 795.042419,172.529282 
	C816.045837,196.033249 830.686401,224.114517 849.912476,248.913422 
	C854.185242,254.424789 854.370789,261.042114 849.824036,267.032104 
	C847.553162,270.023865 846.302124,273.437958 845.366211,276.994659 
	C844.649536,279.718231 843.327026,282.066772 840.678955,283.114014 
	C833.019897,286.142822 825.253723,286.634521 817.614136,283.075897 
	C813.623840,281.217194 810.966858,278.255737 810.551270,273.536591 
	C810.275391,270.403656 808.556213,268.057465 805.792297,266.317535 
	C798.320984,261.614227 790.962646,256.731628 783.541443,251.948242 
	C781.128479,250.392944 778.504578,249.628540 775.593994,249.287796 
	C760.945129,247.572739 749.200562,241.096375 742.639893,227.392380 
	C740.431091,222.778610 737.864990,222.615967 733.974365,224.516129 
	C719.846008,231.416351 711.232239,243.146362 705.404358,257.244629 
	C702.660889,263.881317 700.992249,270.866150 699.675537,277.913696 
	C699.093323,281.030151 698.972351,284.166931 700.183655,287.260681 
	C705.468384,300.758301 706.839539,314.684052 704.389526,328.953949 
	C703.785889,332.469788 705.586548,333.724274 708.520691,334.489777 
	C729.943054,340.078583 751.496887,345.107452 773.158020,349.674835 
	C778.854797,350.876038 784.626221,351.731415 790.307251,352.997437 
	C798.324036,354.783936 803.558350,359.563049 805.522461,367.736664 
	C807.507629,375.997681 807.418518,383.939117 804.806274,392.270660 
	C798.282104,413.078552 793.019531,434.248016 789.308289,455.764404 
	C788.301453,461.601624 786.059204,466.637939 780.931702,469.920044 
	C776.372498,472.838409 773.345764,476.893066 771.593933,481.908478 
	C769.932007,486.666504 766.896362,490.157990 762.839233,493.103455 
	C754.289246,499.310791 745.087891,504.291443 735.379456,508.355865 
	C729.908264,510.646362 727.978333,509.610138 728.095337,503.940826 
	C728.372986,490.486359 730.928833,477.494904 737.233765,465.426880 
	C740.286926,459.582916 744.997375,457.164276 751.596802,457.748871 
	C757.275269,458.251831 758.877563,456.716614 758.587708,450.931854 
	C758.348206,446.152771 759.742004,442.291809 762.580200,438.470001 
	C766.555908,433.116272 767.316650,426.458344 768.589844,420.124359 
	C770.062988,412.795624 771.116943,405.382965 772.373779,398.010345 
	C773.923645,388.918671 769.295288,383.133942 760.206360,383.115906 
	C738.707458,383.073242 717.208435,383.136841 695.709412,383.153870 
	C691.915955,383.156891 688.074097,383.570648 684.524048,381.413208 
	C684.181763,381.877991 683.839478,382.342773 683.497253,382.807556 
	C685.349976,384.325714 687.232971,385.808655 689.050415,387.367950 
	C698.286499,395.292511 707.603882,403.111725 717.832703,409.757996 
	C724.321472,413.974121 726.338989,420.310913 725.602905,427.507904 
	C724.677307,436.557495 720.866943,444.060242 712.551147,448.750824 
	C703.981506,453.584717 697.667236,461.037201 691.027649,468.020905 
	C682.536255,476.952393 674.215454,486.064911 666.642883,495.812347 
	C663.090454,500.384979 658.562866,503.308044 652.812622,503.926544 
	C647.828613,504.462616 644.004822,506.824738 640.972900,510.591614 
	C638.348877,513.851624 635.044556,515.702332 631.010803,516.780457 
	C621.001221,519.455872 610.878845,521.290039 600.522461,521.740356 
	C596.134766,521.931213 594.615234,520.409241 595.897095,516.492920 
	C599.928589,504.176270 605.618835,492.736359 614.953430,483.481506 
	C620.464050,478.018036 624.145752,477.516113 631.156433,480.779144 
	C637.565674,483.762207 639.064697,483.286469 642.036316,477.108551 
	C643.380249,474.314545 645.301758,472.160492 647.973694,470.557556 
	C662.450745,461.872406 672.548218,448.750610 682.727112,435.784851 
	C685.868652,431.783173 684.841125,429.470093 679.716858,427.690826 
	C662.885132,421.846375 645.992920,416.176392 629.161438,410.331512 
	C623.018555,408.198334 616.938293,405.773102 611.674744,401.875732 
	C609.010681,399.903107 606.568909,400.931213 604.098206,401.609253 
	C593.310425,404.569977 582.339600,406.356873 571.207031,407.373413 
	C541.351929,410.099609 513.010498,403.296326 485.011505,394.034424 
	C472.065643,389.752014 459.484558,384.248596 445.943695,381.907806 
	C438.545380,380.628876 432.644501,382.060486 427.936066,389.082306 
	C409.960999,415.889191 385.123352,433.851562 354.721893,444.452789 
	C343.564178,448.343628 332.739288,453.186218 321.593079,457.113556 
	C305.281921,462.860840 292.995117,473.536591 282.291718,486.775848 
	C268.607544,503.702148 256.865173,521.823303 246.829956,541.079773 
	C243.723602,547.040527 239.825073,551.860046 233.376114,554.498474 
	C228.510086,556.489258 225.722382,560.842834 223.349136,565.280762 
	C221.021576,569.633301 217.577805,572.385925 213.066055,574.250488 
	C204.737732,577.692322 196.283905,580.714111 187.517319,582.803955 
	C179.279541,584.767761 177.130981,582.663330 179.213593,574.617493 
	C180.129761,571.078003 181.375183,567.623779 182.603287,563.763489 
z"/>
<path fill="#000000" opacity="1.000000" stroke="none" 
	d="
M600.362427,199.364349 
	C590.526794,208.873520 580.896362,218.087631 571.402893,227.440781 
	C568.712097,230.091843 565.695190,231.928665 562.150513,233.116714 
	C538.333069,241.099579 514.101929,241.159592 489.656494,236.922668 
	C480.451782,235.327301 471.506256,232.729691 462.738861,229.510971 
	C461.212280,228.950531 459.600677,228.562958 457.553345,225.971130 
	C493.078430,220.661880 522.914917,202.864014 554.413330,188.703278 
	C527.557800,188.208603 501.125702,186.416245 476.008820,172.401627 
	C481.609741,169.959763 486.376526,170.741776 490.875824,170.106583 
	C503.199219,168.366776 514.861633,164.526901 526.245178,159.780151 
	C543.189453,152.714645 560.242065,146.155838 578.701538,144.199310 
	C587.320618,143.285782 595.948059,142.735168 604.613831,142.721664 
	C607.264160,142.717545 609.930664,142.683701 613.518066,140.095886 
	C585.870728,137.601868 560.594849,131.581924 539.320435,112.294945 
	C545.555847,110.873657 550.586975,112.531662 555.518127,112.969841 
	C575.536194,114.748642 595.025024,111.953705 614.373718,107.318054 
	C630.567932,103.438194 646.819580,100.268372 663.565430,99.568459 
	C689.574219,98.481407 712.689514,106.725914 734.448853,120.020729 
	C743.007812,125.250198 751.036377,131.179214 758.287903,138.119232 
	C759.680847,139.452316 761.529358,140.518188 761.884644,142.984894 
	C759.080444,145.387375 756.127625,147.125076 752.070251,146.098648 
	C708.169556,134.992523 669.145996,146.491211 633.137146,171.855423 
	C621.532654,180.029510 610.851013,189.308380 600.362427,199.364349 
z"/>
<path fill="#000000" opacity="1.000000" stroke="none" 
	d="
M166.087097,332.062958 
	C175.114441,325.453247 183.882294,319.098999 192.544754,312.604187 
	C213.608032,296.811646 237.303223,288.513153 263.587677,288.156891 
	C275.931183,287.989594 288.120941,289.911469 300.112427,293.024933 
	C312.754211,296.307190 324.845612,301.806793 339.363068,301.892059 
	C335.598297,307.526703 332.532379,312.187073 329.378937,316.787445 
	C328.532166,318.022766 327.163696,318.013275 325.757111,317.836823 
	C302.885864,314.968414 284.109711,323.763550 267.352722,338.347626 
	C256.308533,347.959686 246.235260,358.778168 233.546982,366.369873 
	C202.661148,384.849579 170.509491,385.348755 137.533081,372.759613 
	C125.595238,368.202209 114.859421,361.557983 104.919960,353.592712 
	C103.367607,352.348694 101.990120,350.879089 100.596306,349.450836 
	C100.313278,349.160797 100.321121,348.586945 99.891708,347.080078 
	C123.951500,350.289398 145.910446,345.586243 166.087097,332.062958 
z"/>
<path fill="#000000" opacity="1.000000" stroke="none" 
	d="
M432.607605,456.671478 
	C427.323181,459.899078 422.279541,462.827576 417.377930,465.977142 
	C410.909760,470.133301 410.498779,473.335510 416.026062,478.556427 
	C428.441650,490.283844 442.312408,500.070984 457.277832,508.243988 
	C462.899292,511.314026 466.750702,515.445435 468.243011,521.690735 
	C469.121155,525.365784 470.518036,529.059326 473.994598,530.682007 
	C484.156158,535.424805 487.319733,545.102722 491.122955,554.254883 
	C493.573273,560.151367 496.500854,566.030273 496.537354,572.868042 
	C491.010834,574.199341 486.076202,572.757324 481.105865,571.482849 
	C469.410370,568.483826 458.283325,564.161804 448.256622,557.328918 
	C442.422058,553.352844 441.341553,549.746643 443.728302,543.215820 
	C445.883240,537.319336 445.076904,535.266541 439.062805,533.712280 
	C434.450073,532.520142 431.304871,529.899902 428.153046,526.437439 
	C421.271637,518.877747 412.424042,513.651672 404.078613,507.882721 
	C393.382965,500.489075 382.220428,493.867126 370.618805,487.968018 
	C362.119568,483.646362 359.986450,476.935120 364.087311,468.437958 
	C364.159637,468.288025 364.258392,468.149658 364.319763,467.995850 
	C368.260803,458.123718 374.430145,451.105103 384.576752,446.234955 
	C404.052734,436.886810 417.932739,420.646759 431.246124,404.041443 
	C441.380249,391.401550 437.187653,391.076569 454.895966,395.784241 
	C463.361053,398.034607 471.729431,400.703491 480.323059,404.311554 
	C470.851715,428.027069 453.712982,443.898773 432.607605,456.671478 
z"/>
</svg>