<svg xmlns="http://www.w3.org/2000/svg" viewBox="0 0 1024 640" role="img" aria-label="Running horse icon">
  <path fill="currentColor" d="M145 344c52 35 101 27 154-18 54-45 111-67 188-50 33 7 60 10 86 3 51-14 91-52 134-104 38-46 89-55 132-37 42 18 64 55 78 93 8 22 18 35 35 51 21 20 32 43 18 68-9 16-31 19-51 12-34-12-45-38-62-63-17-25-37-39-68-37-49 3-85 33-114 73 53 18 97 38 150 69 34 20 38 62 15 92-19 25-34 55-44 92-4 14-17 23-31 20l-51-11c-15-3-22-21-12-33l82-103-125-54c-28 31-61 58-103 79-35 18-64 43-92 75-9 10-24 12-35 4l-46-33c-12-9-13-27-2-37l85-78c-56-9-117-34-177-75-50 22-87 63-112 124-8 20-29 30-49 23l-48-18c-16-6-20-27-7-39 35-32 60-67 76-109Z"/>
  <path fill="currentColor" d="M612 184c-50 13-94 6-145-16 87-30 144-18 199 10-17 3-35 3-54 6Zm62-44c-60-17-111-18-169-5 68-52 133-55 199-10-9 3-19 8-30 15Zm-31 78c-61 37-124 53-198 44 88-39 150-64 231-58-8 4-19 8-33 14Z"/>
  <path fill="currentColor" d="M273 319c-72 53-148 75-228 20 77 5 121-30 169-64 38-27 76-42 116-35-20 20-38 44-57 79Z"/>
  <path fill="currentColor" d="M519 481c-29 46-44 86-47 122-1 13-13 23-26 21l-50-7c-17-2-25-22-14-35 34-38 60-79 77-124 20 9 40 17 60 23Zm-267-73c-30 49-48 90-55 123-3 14-17 23-31 19l-50-14c-15-4-21-23-10-34 37-38 64-80 81-126 22 15 43 25 65 32Z"/>
</svg>
